<svg xmlns="http://www.w3.org/2000/svg" width="960" height="962" viewBox="0 0 960 962" version="1.1"><path d="M 659.500 278.038 C 638.590 280.764, 623.338 284.349, 608.749 289.967 C 578.119 301.762, 555.517 321.192, 542.249 347.137 C 534.451 362.385, 530.990 377.141, 530.289 398.140 C 529.582 419.309, 531.845 432.993, 539.278 452.500 C 551.041 483.372, 583.548 508.886, 628.376 522.431 C 634.494 524.279, 654.800 529.257, 673.500 533.492 C 692.200 537.726, 711.775 542.548, 717 544.206 C 746.003 553.408, 759.782 566.161, 762.906 586.692 C 764.379 596.371, 764.287 600.688, 762.416 609.792 C 756.001 641, 727.624 655.719, 681.044 652 C 652.154 649.693, 629.908 641.804, 607.781 626.019 C 599.912 620.406, 581.950 602.410, 576.029 594.208 C 571.786 588.329, 571.369 588.030, 567.824 588.314 C 564.243 588.601, 563.126 589.791, 540.545 617.371 C 527.595 633.188, 517 646.398, 517 646.727 C 517 648.119, 523.864 658.063, 529.784 665.247 C 547.003 686.143, 575.724 704.425, 608.101 715.098 C 667.304 734.614, 745.252 731.458, 787.739 707.825 C 815.234 692.531, 834.099 671.250, 843.661 644.742 C 853.840 616.524, 855.268 578.516, 847.182 551 C 840.937 529.745, 828.083 509.573, 813.141 497.579 C 804.941 490.997, 792.501 483, 790.461 483 C 789.626 483, 786.163 481.597, 782.766 479.882 C 765.751 471.293, 748.446 466.350, 701 456.526 C 663.606 448.783, 654.307 446.277, 643 440.898 C 632.207 435.763, 628.870 433.187, 623.421 425.785 C 613.559 412.389, 612.152 393.384, 619.897 378.203 C 625.493 367.233, 640.727 357.633, 658.729 353.731 C 671.892 350.879, 701.865 350.623, 715.724 353.245 C 732.653 356.449, 749.155 362.571, 760.432 369.832 C 767.191 374.183, 779.313 383.580, 782.437 386.889 C 784.805 389.397, 786.162 389.993, 789.437 389.966 L 793.500 389.931 808.500 369.264 C 816.750 357.897, 826.377 344.610, 829.893 339.737 L 836.286 330.877 832.393 326.840 C 826.451 320.677, 815.459 311.906, 805.742 305.572 C 785.989 292.697, 761.454 284.119, 731 279.441 C 718.684 277.550, 670.500 276.604, 659.500 278.038 M 145 502.500 L 145 722 188.500 722 L 232 722 232 630.500 L 232 539 262.750 539.017 C 297.330 539.037, 302.607 539.692, 314.780 545.473 C 327.756 551.635, 337.126 563.315, 344.486 582.500 C 347.588 590.589, 374.320 671.586, 385.822 707.750 L 390.354 722 435.149 722 L 479.944 722 455.059 648.076 C 441.373 607.417, 428.378 569.955, 426.183 564.826 C 415.298 539.397, 402.792 524.260, 385.217 515.238 C 378.126 511.599, 377.941 511.408, 378.217 508.030 C 378.487 504.717, 378.815 504.444, 385.500 501.952 C 395.120 498.366, 407.167 492.144, 417.674 485.334 C 448.291 465.490, 462.391 430.916, 458.072 386.279 C 455.168 356.276, 444.981 334.479, 425.139 315.812 C 409.502 301.103, 392.006 292.757, 365 287.124 C 346.442 283.253, 338.801 283, 240.580 283 L 145 283 145 502.500 M 232 411.500 L 232 471 271.394 471 C 322.262 471, 334.925 469.646, 348.455 462.762 C 354.761 459.554, 363.385 450.630, 366.847 443.732 C 371.824 433.812, 373.331 426.261, 373.276 411.500 C 373.179 384.891, 365.214 369.140, 347.021 359.581 C 333.835 352.651, 328.050 352.028, 276.750 352.013 L 232 352 232 411.500" stroke="none" fill="#fbfbfb" fill-rule="evenodd"/><path d="M 0 481.001 L 0 962.002 480.250 961.751 L 960.500 961.500 960.751 480.750 L 961.002 0 480.501 0 L 0 0 0 481.001 M 0.496 481.500 C 0.496 746.050, 0.610 854.126, 0.750 721.668 C 0.890 589.211, 0.890 372.761, 0.750 240.668 C 0.610 108.576, 0.496 216.950, 0.496 481.500 M 659.500 278.038 C 638.590 280.764, 623.338 284.349, 608.749 289.967 C 578.119 301.762, 555.517 321.192, 542.249 347.137 C 534.451 362.385, 530.990 377.141, 530.289 398.140 C 529.582 419.309, 531.845 432.993, 539.278 452.500 C 551.041 483.372, 583.548 508.886, 628.376 522.431 C 634.494 524.279, 654.800 529.257, 673.500 533.492 C 692.200 537.726, 711.775 542.548, 717 544.206 C 746.003 553.408, 759.782 566.161, 762.906 586.692 C 764.379 596.371, 764.287 600.688, 762.416 609.792 C 756.001 641, 727.624 655.719, 681.044 652 C 652.154 649.693, 629.908 641.804, 607.781 626.019 C 599.912 620.406, 581.950 602.410, 576.029 594.208 C 571.786 588.329, 571.369 588.030, 567.824 588.314 C 564.243 588.601, 563.126 589.791, 540.545 617.371 C 527.595 633.188, 517 646.398, 517 646.727 C 517 648.119, 523.864 658.063, 529.784 665.247 C 547.003 686.143, 575.724 704.425, 608.101 715.098 C 667.304 734.614, 745.252 731.458, 787.739 707.825 C 815.234 692.531, 834.099 671.250, 843.661 644.742 C 853.840 616.524, 855.268 578.516, 847.182 551 C 840.937 529.745, 828.083 509.573, 813.141 497.579 C 804.941 490.997, 792.501 483, 790.461 483 C 789.626 483, 786.163 481.597, 782.766 479.882 C 765.751 471.293, 748.446 466.350, 701 456.526 C 663.606 448.783, 654.307 446.277, 643 440.898 C 632.207 435.763, 628.870 433.187, 623.421 425.785 C 613.559 412.389, 612.152 393.384, 619.897 378.203 C 625.493 367.233, 640.727 357.633, 658.729 353.731 C 671.892 350.879, 701.865 350.623, 715.724 353.245 C 732.653 356.449, 749.155 362.571, 760.432 369.832 C 767.191 374.183, 779.313 383.580, 782.437 386.889 C 784.805 389.397, 786.162 389.993, 789.437 389.966 L 793.500 389.931 808.500 369.264 C 816.750 357.897, 826.377 344.610, 829.893 339.737 L 836.286 330.877 832.393 326.840 C 826.451 320.677, 815.459 311.906, 805.742 305.572 C 785.989 292.697, 761.454 284.119, 731 279.441 C 718.684 277.550, 670.500 276.604, 659.500 278.038 M 145 502.500 L 145 722 188.500 722 L 232 722 232 630.500 L 232 539 262.750 539.017 C 297.330 539.037, 302.607 539.692, 314.780 545.473 C 327.756 551.635, 337.126 563.315, 344.486 582.500 C 347.588 590.589, 374.320 671.586, 385.822 707.750 L 390.354 722 435.149 722 L 479.944 722 455.059 648.076 C 441.373 607.417, 428.378 569.955, 426.183 564.826 C 415.298 539.397, 402.792 524.260, 385.217 515.238 C 378.126 511.599, 377.941 511.408, 378.217 508.030 C 378.487 504.717, 378.815 504.444, 385.500 501.952 C 395.120 498.366, 407.167 492.144, 417.674 485.334 C 448.291 465.490, 462.391 430.916, 458.072 386.279 C 455.168 356.276, 444.981 334.479, 425.139 315.812 C 409.502 301.103, 392.006 292.757, 365 287.124 C 346.442 283.253, 338.801 283, 240.580 283 L 145 283 145 502.500 M 232 411.500 L 232 471 271.394 471 C 322.262 471, 334.925 469.646, 348.455 462.762 C 354.761 459.554, 363.385 450.630, 366.847 443.732 C 371.824 433.812, 373.331 426.261, 373.276 411.500 C 373.179 384.891, 365.214 369.140, 347.021 359.581 C 333.835 352.651, 328.050 352.028, 276.750 352.013 L 232 352 232 411.500" stroke="none" fill="#040404" fill-rule="evenodd"/></svg>